<svg xmlns="http://www.w3.org/2000/svg" width="1200" height="630" viewBox="0 0 1200 630" role="img" aria-label="GoalOS AGIJobManager Ascension social card"><defs><linearGradient id="g" x1="0" y1="0" x2="1" y2="1"><stop stop-color="#f7f0d8"/><stop offset=".48" stop-color="#77f7d4"/><stop offset="1" stop-color="#75a8ff"/></linearGradient><radialGradient id="r" cx="70%" cy="35%" r="70%"><stop stop-color="#0f766e" stop-opacity=".72"/><stop offset="1" stop-color="#050b10"/></radialGradient></defs><rect width="1200" height="630" fill="#050b10"/><rect width="1200" height="630" fill="url(#r)" opacity=".8"/><g stroke="#77f7d4" opacity=".13"><path d="M0 95h1200M0 205h1200M0 315h1200M0 425h1200M0 535h1200M95 0v630M205 0v630M315 0v630M425 0v630M535 0v630M645 0v630M755 0v630M865 0v630M975 0v630M1085 0v630"/></g><text x="76" y="92" fill="#77f7d4" font-size="22" font-family="Inter,Arial,sans-serif" letter-spacing="7" font-weight="800">GOALOS AGIJOBMANAGER ASCENSION</text><text x="76" y="208" fill="#fffaf0" font-size="86" font-family="Inter,Arial,sans-serif" font-weight="900">Proof-settled</text><text x="76" y="304" fill="url(#g)" font-size="86" font-family="Inter,Arial,sans-serif" font-weight="900">machine work</text><text x="76" y="394" fill="#fffaf0" font-size="64" font-family="Georgia,serif" font-style="italic">under human authority.</text><text x="80" y="476" fill="#d8e8eb" font-size="28" font-family="Inter,Arial,sans-serif">Evidence Dockets · ProofBundles · Settlement lifecycle · Chronicle</text><g transform="translate(820 145)"><circle cx="135" cy="135" r="122" fill="#06151c" stroke="#77f7d4" stroke-width="2"/><circle cx="135" cy="135" r="72" fill="url(#g)" opacity=".95"/><text x="135" y="127" text-anchor="middle" fill="#06151c" font-size="30" font-weight="900" font-family="Inter,Arial,sans-serif">aJ</text><text x="135" y="158" text-anchor="middle" fill="#06151c" font-size="18" font-weight="900" font-family="Inter,Arial,sans-serif">GoalOS</text><g fill="#050b10" stroke="#77f7d4"><circle cx="135" cy="18" r="24"/><circle cx="252" cy="135" r="24"/><circle cx="135" cy="252" r="24"/><circle cx="18" cy="135" r="24"/></g><g fill="#fffaf0" font-size="12" text-anchor="middle" font-weight="800" font-family="Inter,Arial,sans-serif"><text x="135" y="22">JOB</text><text x="252" y="139">PROOF</text><text x="135" y="256">SETTLE</text><text x="18" y="139">HUMAN</text></g></g><text x="76" y="570" fill="#a9c3c6" font-size="20" font-family="Inter,Arial,sans-serif">Public-safe browser-local demos · no public wallet · no analytics · no user data wanted</text></svg>